<svg width="130" height="46" viewBox="0 0 130 46" fill="none" xmlns="http://www.w3.org/2000/svg">
<rect width="129.996" height="46" rx="23" fill="#F5F5F5"/>
<mask id="path-2-outside-1_1_181" maskUnits="userSpaceOnUse" x="52.2656" y="16.4556" width="58" height="16" fill="black">
<rect fill="white" x="52.2656" y="16.4556" width="58" height="16"/>
<path d="M53.445 28.4556H58.0444C59.7839 28.4556 61.2286 27.3794 61.2286 25.522C61.2286 24.0625 60.2557 23.3254 59.5628 23.0896V23.0011C60.3883 22.5589 60.8748 21.7923 60.8748 20.7751C60.8748 19.2714 59.7102 18.1363 57.7496 18.1363H53.445V19.1535H54.4179V27.4384H53.445V28.4556ZM55.612 22.6031V19.1977H57.7496C58.8552 19.1977 59.6513 19.8464 59.6513 20.8636C59.6513 21.9102 58.8699 22.6031 57.7053 22.6031H55.612ZM55.612 27.4089V23.6055H57.7053C58.8994 23.6055 59.9903 24.1362 59.9903 25.4925C59.9903 26.8192 59.0616 27.4089 57.838 27.4089H55.612ZM63.2955 28.4556H64.4601V24.3574C64.4601 22.8979 65.035 21.7628 66.4355 21.7628H67.1283V20.5982H66.6271C65.5067 20.5982 64.7549 21.4237 64.5338 22.0724H64.4453V20.7898H63.2955V28.4556ZM70.6169 19.4041C71.1182 19.4041 71.472 19.0356 71.472 18.5491C71.472 18.0774 71.1182 17.7088 70.6169 17.7088C70.1305 17.7088 69.7767 18.0774 69.7767 18.5491C69.7767 19.0356 70.1305 19.4041 70.6169 19.4041ZM70.042 28.4556H71.2066V20.7898H68.5973V21.7775H70.042V28.4556ZM77.3204 28.6472C79.0894 28.6472 80.3572 27.63 80.7847 26.2001L79.6496 25.9347C79.399 26.9961 78.4113 27.6153 77.3352 27.6153C75.743 27.6153 74.7406 26.6571 74.7259 24.947H80.8879V24.5195C80.8879 22.2198 79.5612 20.5982 77.2467 20.5982C75.2123 20.5982 73.5318 22.2051 73.5318 24.6522C73.5318 27.0109 74.9912 28.6472 77.3204 28.6472ZM74.7553 24.0036C74.8438 22.5589 75.9937 21.6449 77.2467 21.6449C78.5145 21.6449 79.6201 22.4114 79.6938 24.0036H74.7553ZM83.5065 28.4556H84.6711V21.7775H86.9119V20.7898H84.6711V19.5958C84.6711 18.7702 85.0102 18.4164 85.821 18.4164H86.8529V17.3992H85.8357C84.4353 17.3992 83.5065 18.0331 83.5065 19.581V20.7898H82.0619V21.7775H83.5065V28.4556ZM90.4838 19.4041C90.985 19.4041 91.3388 19.0356 91.3388 18.5491C91.3388 18.0774 90.985 17.7088 90.4838 17.7088C89.9973 17.7088 89.6435 18.0774 89.6435 18.5491C89.6435 19.0356 89.9973 19.4041 90.4838 19.4041ZM89.9089 28.4556H91.0735V20.7898H88.4642V21.7775H89.9089V28.4556ZM93.9883 28.4556H95.1529V23.8856C95.1529 22.6178 96.0964 21.6891 97.3052 21.6891C98.3813 21.6891 99.2806 22.4851 99.2806 23.7087V28.4556H100.445V23.635C100.445 21.9397 99.369 20.5982 97.5853 20.5982C96.3912 20.5982 95.5657 21.2174 95.2413 21.9102H95.1529V20.7898H93.9883V28.4556ZM104.254 31.8462H107.571C108.972 31.8462 109.901 31.2123 109.901 29.6644V20.7898H108.78V21.9987H108.692C108.5 21.7186 107.778 20.5982 106.112 20.5982C103.93 20.5982 102.367 22.264 102.367 24.608C102.367 26.9814 103.856 28.6472 106.023 28.6472C107.63 28.6472 108.397 27.689 108.647 27.2173H108.736V29.5465C108.736 30.372 108.397 30.77 107.586 30.77H104.254V31.8462ZM106.156 27.5858C104.652 27.5858 103.562 26.3622 103.562 24.608C103.562 22.8095 104.711 21.6596 106.186 21.6596C107.778 21.6596 108.78 23.0011 108.78 24.608C108.78 26.4949 107.601 27.5858 106.156 27.5858Z"/>
</mask>
<path d="M53.445 28.4556H58.0444C59.7839 28.4556 61.2286 27.3794 61.2286 25.522C61.2286 24.0625 60.2557 23.3254 59.5628 23.0896V23.0011C60.3883 22.5589 60.8748 21.7923 60.8748 20.7751C60.8748 19.2714 59.7102 18.1363 57.7496 18.1363H53.445V19.1535H54.4179V27.4384H53.445V28.4556ZM55.612 22.6031V19.1977H57.7496C58.8552 19.1977 59.6513 19.8464 59.6513 20.8636C59.6513 21.9102 58.8699 22.6031 57.7053 22.6031H55.612ZM55.612 27.4089V23.6055H57.7053C58.8994 23.6055 59.9903 24.1362 59.9903 25.4925C59.9903 26.8192 59.0616 27.4089 57.838 27.4089H55.612ZM63.2955 28.4556H64.4601V24.3574C64.4601 22.8979 65.035 21.7628 66.4355 21.7628H67.1283V20.5982H66.6271C65.5067 20.5982 64.7549 21.4237 64.5338 22.0724H64.4453V20.7898H63.2955V28.4556ZM70.6169 19.4041C71.1182 19.4041 71.472 19.0356 71.472 18.5491C71.472 18.0774 71.1182 17.7088 70.6169 17.7088C70.1305 17.7088 69.7767 18.0774 69.7767 18.5491C69.7767 19.0356 70.1305 19.4041 70.6169 19.4041ZM70.042 28.4556H71.2066V20.7898H68.5973V21.7775H70.042V28.4556ZM77.3204 28.6472C79.0894 28.6472 80.3572 27.63 80.7847 26.2001L79.6496 25.9347C79.399 26.9961 78.4113 27.6153 77.3352 27.6153C75.743 27.6153 74.7406 26.6571 74.7259 24.947H80.8879V24.5195C80.8879 22.2198 79.5612 20.5982 77.2467 20.5982C75.2123 20.5982 73.5318 22.2051 73.5318 24.6522C73.5318 27.0109 74.9912 28.6472 77.3204 28.6472ZM74.7553 24.0036C74.8438 22.5589 75.9937 21.6449 77.2467 21.6449C78.5145 21.6449 79.6201 22.4114 79.6938 24.0036H74.7553ZM83.5065 28.4556H84.6711V21.7775H86.9119V20.7898H84.6711V19.5958C84.6711 18.7702 85.0102 18.4164 85.821 18.4164H86.8529V17.3992H85.8357C84.4353 17.3992 83.5065 18.0331 83.5065 19.581V20.7898H82.0619V21.7775H83.5065V28.4556ZM90.4838 19.4041C90.985 19.4041 91.3388 19.0356 91.3388 18.5491C91.3388 18.0774 90.985 17.7088 90.4838 17.7088C89.9973 17.7088 89.6435 18.0774 89.6435 18.5491C89.6435 19.0356 89.9973 19.4041 90.4838 19.4041ZM89.9089 28.4556H91.0735V20.7898H88.4642V21.7775H89.9089V28.4556ZM93.9883 28.4556H95.1529V23.8856C95.1529 22.6178 96.0964 21.6891 97.3052 21.6891C98.3813 21.6891 99.2806 22.4851 99.2806 23.7087V28.4556H100.445V23.635C100.445 21.9397 99.369 20.5982 97.5853 20.5982C96.3912 20.5982 95.5657 21.2174 95.2413 21.9102H95.1529V20.7898H93.9883V28.4556ZM104.254 31.8462H107.571C108.972 31.8462 109.901 31.2123 109.901 29.6644V20.7898H108.78V21.9987H108.692C108.5 21.7186 107.778 20.5982 106.112 20.5982C103.93 20.5982 102.367 22.264 102.367 24.608C102.367 26.9814 103.856 28.6472 106.023 28.6472C107.63 28.6472 108.397 27.689 108.647 27.2173H108.736V29.5465C108.736 30.372 108.397 30.77 107.586 30.77H104.254V31.8462ZM106.156 27.5858C104.652 27.5858 103.562 26.3622 103.562 24.608C103.562 22.8095 104.711 21.6596 106.186 21.6596C107.778 21.6596 108.78 23.0011 108.78 24.608C108.78 26.4949 107.601 27.5858 106.156 27.5858Z" fill="#000E33"/>
<path d="M53.445 28.4556H53.2439V28.6566H53.445V28.4556ZM59.5628 23.0896H59.3618V23.2335L59.498 23.2799L59.5628 23.0896ZM59.5628 23.0011L59.4679 22.8239L59.3618 22.8807V23.0011H59.5628ZM53.445 18.1363V17.9353H53.2439V18.1363H53.445ZM53.445 19.1535H53.2439V19.3545H53.445V19.1535ZM54.4179 19.1535H54.6189V18.9525H54.4179V19.1535ZM54.4179 27.4384V27.6394H54.6189V27.4384H54.4179ZM53.445 27.4384V27.2374H53.2439V27.4384H53.445ZM55.612 22.6031H55.411V22.8041H55.612V22.6031ZM55.612 19.1977V18.9967H55.411V19.1977H55.612ZM55.612 27.4089H55.411V27.6099H55.612V27.4089ZM55.612 23.6055V23.4045H55.411V23.6055H55.612ZM53.445 28.4556V28.6566H58.0444V28.4556V28.2545H53.445V28.4556ZM58.0444 28.4556V28.6566C58.9543 28.6566 59.7996 28.3751 60.4205 27.8373C61.0446 27.2966 61.4296 26.5071 61.4296 25.522H61.2286H61.0276C61.0276 26.3943 60.6903 27.0715 60.1572 27.5334C59.6209 27.998 58.874 28.2545 58.0444 28.2545V28.4556ZM61.2286 25.522H61.4296C61.4296 23.9537 60.378 23.1547 59.6276 22.8993L59.5628 23.0896L59.498 23.2799C60.1333 23.4961 61.0276 24.1714 61.0276 25.522H61.2286ZM59.5628 23.0896H59.7638V23.0011H59.5628H59.3618V23.0896H59.5628ZM59.5628 23.0011L59.6577 23.1783C60.5481 22.7013 61.0758 21.8669 61.0758 20.7751H60.8748H60.6738C60.6738 21.7177 60.2285 22.4164 59.4679 22.8239L59.5628 23.0011ZM60.8748 20.7751H61.0758C61.0758 19.9685 60.7621 19.2528 60.1802 18.7409C59.6001 18.2305 58.7682 17.9353 57.7496 17.9353V18.1363V18.3374C58.6916 18.3374 59.4223 18.6097 59.9147 19.0428C60.4053 19.4744 60.6738 20.078 60.6738 20.7751H60.8748ZM57.7496 18.1363V17.9353H53.445V18.1363V18.3374H57.7496V18.1363ZM53.445 18.1363H53.2439V19.1535H53.445H53.646V18.1363H53.445ZM53.445 19.1535V19.3545H54.4179V19.1535V18.9525H53.445V19.1535ZM54.4179 19.1535H54.2169V27.4384H54.4179H54.6189V19.1535H54.4179ZM54.4179 27.4384V27.2374H53.445V27.4384V27.6394H54.4179V27.4384ZM53.445 27.4384H53.2439V28.4556H53.445H53.646V27.4384H53.445ZM55.612 22.6031H55.813V19.1977H55.612H55.411V22.6031H55.612ZM55.612 19.1977V19.3988H57.7496V19.1977V18.9967H55.612V19.1977ZM57.7496 19.1977V19.3988C58.2641 19.3988 58.6901 19.5496 58.9841 19.8018C59.2752 20.0515 59.4502 20.4114 59.4502 20.8636H59.6513H59.8523C59.8523 20.2985 59.6293 19.8255 59.2459 19.4966C58.8655 19.1702 58.3406 18.9967 57.7496 18.9967V19.1977ZM59.6513 20.8636H59.4502C59.4502 21.3338 59.2763 21.7126 58.9812 21.9758C58.684 22.2408 58.2484 22.4021 57.7053 22.4021V22.6031V22.8041C58.3269 22.8041 58.8642 22.6189 59.2488 22.2758C59.6356 21.9309 59.8523 21.4399 59.8523 20.8636H59.6513ZM57.7053 22.6031V22.4021H55.612V22.6031V22.8041H57.7053V22.6031ZM55.612 27.4089H55.813V23.6055H55.612H55.411V27.4089H55.612ZM55.612 23.6055V23.8065H57.7053V23.6055V23.4045H55.612V23.6055ZM57.7053 23.6055V23.8065C58.2769 23.8065 58.802 23.9342 59.1786 24.2038C59.5457 24.4668 59.7893 24.8765 59.7893 25.4925H59.9903H60.1913C60.1913 24.7522 59.8895 24.2184 59.4127 23.877C58.9452 23.5422 58.3279 23.4045 57.7053 23.4045V23.6055ZM59.9903 25.4925H59.7893C59.7893 26.1046 59.5776 26.5227 59.2462 26.7923C58.9083 27.0671 58.4208 27.2079 57.838 27.2079V27.4089V27.6099C58.4788 27.6099 59.0675 27.4559 59.4999 27.1042C59.9387 26.7472 60.1913 26.2071 60.1913 25.4925H59.9903ZM57.838 27.4089V27.2079H55.612V27.4089V27.6099H57.838V27.4089ZM63.2955 28.4556H63.0944V28.6566H63.2955V28.4556ZM64.4601 28.4556V28.6566H64.6611V28.4556H64.4601ZM67.1283 21.7628V21.9638H67.3293V21.7628H67.1283ZM67.1283 20.5982H67.3293V20.3972H67.1283V20.5982ZM64.5338 22.0724V22.2734H64.6776L64.724 22.1372L64.5338 22.0724ZM64.4453 22.0724H64.2443V22.2734H64.4453V22.0724ZM64.4453 20.7898H64.6463V20.5888H64.4453V20.7898ZM63.2955 20.7898V20.5888H63.0944V20.7898H63.2955ZM63.2955 28.4556V28.6566H64.4601V28.4556V28.2545H63.2955V28.4556ZM64.4601 28.4556H64.6611V24.3574H64.4601H64.259V28.4556H64.4601ZM64.4601 24.3574H64.6611C64.6611 23.6492 64.8013 23.0463 65.0885 22.6263C65.3682 22.2173 65.7986 21.9638 66.4355 21.9638V21.7628V21.5618C65.6719 21.5618 65.1146 21.8759 64.7566 22.3993C64.4063 22.9117 64.259 23.6061 64.259 24.3574H64.4601ZM66.4355 21.7628V21.9638H67.1283V21.7628V21.5618H66.4355V21.7628ZM67.1283 21.7628H67.3293V20.5982H67.1283H66.9273V21.7628H67.1283ZM67.1283 20.5982V20.3972H66.6271V20.5982V20.7992H67.1283V20.5982ZM66.6271 20.5982V20.3972C65.4022 20.3972 64.5859 21.2965 64.3435 22.0075L64.5338 22.0724L64.724 22.1372C64.9239 21.551 65.6113 20.7992 66.6271 20.7992V20.5982ZM64.5338 22.0724V21.8714H64.4453V22.0724V22.2734H64.5338V22.0724ZM64.4453 22.0724H64.6463V20.7898H64.4453H64.2443V22.0724H64.4453ZM64.4453 20.7898V20.5888H63.2955V20.7898V20.9909H64.4453V20.7898ZM63.2955 20.7898H63.0944V28.4556H63.2955H63.4965V20.7898H63.2955ZM70.042 28.4556H69.841V28.6566H70.042V28.4556ZM71.2066 28.4556V28.6566H71.4076V28.4556H71.2066ZM71.2066 20.7898H71.4076V20.5888H71.2066V20.7898ZM68.5973 20.7898V20.5888H68.3963V20.7898H68.5973ZM68.5973 21.7775H68.3963V21.9786H68.5973V21.7775ZM70.042 21.7775H70.243V21.5765H70.042V21.7775ZM70.6169 19.4041V19.6051C71.2315 19.6051 71.673 19.1443 71.673 18.5491H71.472H71.2709C71.2709 18.9269 71.0048 19.2031 70.6169 19.2031V19.4041ZM71.472 18.5491H71.673C71.673 17.9663 71.2292 17.5078 70.6169 17.5078V17.7088V17.9098C71.0071 17.9098 71.2709 18.1884 71.2709 18.5491H71.472ZM70.6169 17.7088V17.5078C70.0171 17.5078 69.5756 17.9687 69.5756 18.5491H69.7767H69.9777C69.9777 18.186 70.2438 17.9098 70.6169 17.9098V17.7088ZM69.7767 18.5491H69.5756C69.5756 19.1419 70.0148 19.6051 70.6169 19.6051V19.4041V19.2031C70.2461 19.2031 69.9777 18.9292 69.9777 18.5491H69.7767ZM70.042 28.4556V28.6566H71.2066V28.4556V28.2545H70.042V28.4556ZM71.2066 28.4556H71.4076V20.7898H71.2066H71.0056V28.4556H71.2066ZM71.2066 20.7898V20.5888H68.5973V20.7898V20.9909H71.2066V20.7898ZM68.5973 20.7898H68.3963V21.7775H68.5973H68.7983V20.7898H68.5973ZM68.5973 21.7775V21.9786H70.042V21.7775V21.5765H68.5973V21.7775ZM70.042 21.7775H69.841V28.4556H70.042H70.243V21.7775H70.042ZM80.7847 26.2001L80.9773 26.2577L81.0385 26.053L80.8305 26.0043L80.7847 26.2001ZM79.6496 25.9347L79.6954 25.739L79.5001 25.6933L79.454 25.8885L79.6496 25.9347ZM74.7259 24.947V24.746H74.5231L74.5248 24.9488L74.7259 24.947ZM80.8879 24.947V25.148H81.0889V24.947H80.8879ZM74.7553 24.0036L74.5547 23.9913L74.5416 24.2046H74.7553V24.0036ZM79.6938 24.0036V24.2046H79.9044L79.8947 23.9943L79.6938 24.0036ZM77.3204 28.6472V28.8482C79.1755 28.8482 80.5236 27.7753 80.9773 26.2577L80.7847 26.2001L80.5921 26.1425C80.1909 27.4847 79.0033 28.4462 77.3204 28.4462V28.6472ZM80.7847 26.2001L80.8305 26.0043L79.6954 25.739L79.6496 25.9347L79.6039 26.1305L80.739 26.3958L80.7847 26.2001ZM79.6496 25.9347L79.454 25.8885C79.2294 26.8397 78.3398 27.4143 77.3352 27.4143V27.6153V27.8163C78.4828 27.8163 79.5686 27.1526 79.8453 25.9809L79.6496 25.9347ZM77.3352 27.6153V27.4143C76.5796 27.4143 75.9869 27.1877 75.5814 26.7806C75.1758 26.3732 74.9339 25.7615 74.9269 24.9453L74.7259 24.947L74.5248 24.9488C74.5326 25.8426 74.7993 26.565 75.2966 27.0643C75.794 27.5638 76.4986 27.8163 77.3352 27.8163V27.6153ZM74.7259 24.947V25.148H80.8879V24.947V24.746H74.7259V24.947ZM80.8879 24.947H81.0889V24.5195H80.8879H80.6869V24.947H80.8879ZM80.8879 24.5195H81.0889C81.0889 23.3321 80.7462 22.3001 80.0849 21.5623C79.4212 20.8217 78.4538 20.3972 77.2467 20.3972V20.5982V20.7992C78.3541 20.7992 79.2073 21.1855 79.7855 21.8306C80.3663 22.4786 80.6869 23.4072 80.6869 24.5195H80.8879ZM77.2467 20.5982V20.3972C75.0923 20.3972 73.3308 22.1032 73.3308 24.6522H73.5318H73.7328C73.7328 22.3069 75.3324 20.7992 77.2467 20.7992V20.5982ZM73.5318 24.6522H73.3308C73.3308 25.8728 73.7088 26.9236 74.4056 27.6713C75.1038 28.4205 76.1065 28.8482 77.3204 28.8482V28.6472V28.4462C76.2052 28.4462 75.3135 28.0558 74.6997 27.3972C74.0844 26.7369 73.7328 25.7903 73.7328 24.6522H73.5318ZM74.7553 24.0036L74.956 24.0158C75.0375 22.6854 76.0915 21.8459 77.2467 21.8459V21.6449V21.4438C75.8959 21.4438 74.6501 22.4323 74.5547 23.9913L74.7553 24.0036ZM77.2467 21.6449V21.8459C77.8411 21.8459 78.3844 22.0254 78.7853 22.3781C79.1836 22.7285 79.4584 23.2644 79.493 24.0128L79.6938 24.0036L79.8947 23.9943C79.8556 23.1505 79.5407 22.5072 79.0508 22.0762C78.5636 21.6476 77.9201 21.4438 77.2467 21.4438V21.6449ZM79.6938 24.0036V23.8025H74.7553V24.0036V24.2046H79.6938V24.0036ZM83.5065 28.4556H83.3055V28.6566H83.5065V28.4556ZM84.6711 28.4556V28.6566H84.8722V28.4556H84.6711ZM84.6711 21.7775V21.5765H84.4701V21.7775H84.6711ZM86.9119 21.7775V21.9786H87.1129V21.7775H86.9119ZM86.9119 20.7898H87.1129V20.5888H86.9119V20.7898ZM84.6711 20.7898H84.4701V20.9909H84.6711V20.7898ZM86.8529 18.4164V18.6174H87.054V18.4164H86.8529ZM86.8529 17.3992H87.054V17.1982H86.8529V17.3992ZM83.5065 20.7898V20.9909H83.7076V20.7898H83.5065ZM82.0619 20.7898V20.5888H81.8608V20.7898H82.0619ZM82.0619 21.7775H81.8608V21.9786H82.0619V21.7775ZM83.5065 21.7775H83.7076V21.5765H83.5065V21.7775ZM83.5065 28.4556V28.6566H84.6711V28.4556V28.2545H83.5065V28.4556ZM84.6711 28.4556H84.8722V21.7775H84.6711H84.4701V28.4556H84.6711ZM84.6711 21.7775V21.9786H86.9119V21.7775V21.5765H84.6711V21.7775ZM86.9119 21.7775H87.1129V20.7898H86.9119H86.7109V21.7775H86.9119ZM86.9119 20.7898V20.5888H84.6711V20.7898V20.9909H86.9119V20.7898ZM84.6711 20.7898H84.8722V19.5958H84.6711H84.4701V20.7898H84.6711ZM84.6711 19.5958H84.8722C84.8722 19.2043 84.9536 18.9732 85.0862 18.8366C85.2176 18.7013 85.4396 18.6174 85.821 18.6174V18.4164V18.2154C85.3916 18.2154 85.0387 18.3084 84.7978 18.5565C84.5583 18.8031 84.4701 19.1617 84.4701 19.5958H84.6711ZM85.821 18.4164V18.6174H86.8529V18.4164V18.2154H85.821V18.4164ZM86.8529 18.4164H87.054V17.3992H86.8529H86.6519V18.4164H86.8529ZM86.8529 17.3992V17.1982H85.8357V17.3992V17.6003H86.8529V17.3992ZM85.8357 17.3992V17.1982C85.1091 17.1982 84.472 17.3622 84.0145 17.7576C83.5517 18.1576 83.3055 18.7657 83.3055 19.581H83.5065H83.7076C83.7076 18.8485 83.9258 18.3657 84.2774 18.0618C84.6344 17.7532 85.1619 17.6003 85.8357 17.6003V17.3992ZM83.5065 19.581H83.3055V20.7898H83.5065H83.7076V19.581H83.5065ZM83.5065 20.7898V20.5888H82.0619V20.7898V20.9909H83.5065V20.7898ZM82.0619 20.7898H81.8608V21.7775H82.0619H82.2629V20.7898H82.0619ZM82.0619 21.7775V21.9786H83.5065V21.7775V21.5765H82.0619V21.7775ZM83.5065 21.7775H83.3055V28.4556H83.5065H83.7076V21.7775H83.5065ZM89.9089 28.4556H89.7078V28.6566H89.9089V28.4556ZM91.0735 28.4556V28.6566H91.2745V28.4556H91.0735ZM91.0735 20.7898H91.2745V20.5888H91.0735V20.7898ZM88.4642 20.7898V20.5888H88.2631V20.7898H88.4642ZM88.4642 21.7775H88.2631V21.9786H88.4642V21.7775ZM89.9089 21.7775H90.1099V21.5765H89.9089V21.7775ZM90.4838 19.4041V19.6051C91.0983 19.6051 91.5398 19.1443 91.5398 18.5491H91.3388H91.1378C91.1378 18.9269 90.8717 19.2031 90.4838 19.2031V19.4041ZM91.3388 18.5491H91.5398C91.5398 17.9663 91.096 17.5078 90.4838 17.5078V17.7088V17.9098C90.874 17.9098 91.1378 18.1884 91.1378 18.5491H91.3388ZM90.4838 17.7088V17.5078C89.884 17.5078 89.4425 17.9687 89.4425 18.5491H89.6435H89.8445C89.8445 18.186 90.1106 17.9098 90.4838 17.9098V17.7088ZM89.6435 18.5491H89.4425C89.4425 19.1419 89.8817 19.6051 90.4838 19.6051V19.4041V19.2031C90.1129 19.2031 89.8445 18.9292 89.8445 18.5491H89.6435ZM89.9089 28.4556V28.6566H91.0735V28.4556V28.2545H89.9089V28.4556ZM91.0735 28.4556H91.2745V20.7898H91.0735H90.8724V28.4556H91.0735ZM91.0735 20.7898V20.5888H88.4642V20.7898V20.9909H91.0735V20.7898ZM88.4642 20.7898H88.2631V21.7775H88.4642H88.6652V20.7898H88.4642ZM88.4642 21.7775V21.9786H89.9089V21.7775V21.5765H88.4642V21.7775ZM89.9089 21.7775H89.7078V28.4556H89.9089H90.1099V21.7775H89.9089ZM93.9883 28.4556H93.7873V28.6566H93.9883V28.4556ZM95.1529 28.4556V28.6566H95.3539V28.4556H95.1529ZM99.2806 28.4556H99.0796V28.6566H99.2806V28.4556ZM100.445 28.4556V28.6566H100.646V28.4556H100.445ZM95.2413 21.9102V22.1112H95.3692L95.4234 21.9954L95.2413 21.9102ZM95.1529 21.9102H94.9519V22.1112H95.1529V21.9102ZM95.1529 20.7898H95.3539V20.5888H95.1529V20.7898ZM93.9883 20.7898V20.5888H93.7873V20.7898H93.9883ZM93.9883 28.4556V28.6566H95.1529V28.4556V28.2545H93.9883V28.4556ZM95.1529 28.4556H95.3539V23.8856H95.1529H94.9519V28.4556H95.1529ZM95.1529 23.8856H95.3539C95.3539 22.727 96.2092 21.8901 97.3052 21.8901V21.6891V21.4881C95.9835 21.4881 94.9519 22.5086 94.9519 23.8856H95.1529ZM97.3052 21.6891V21.8901C98.2743 21.8901 99.0796 22.6001 99.0796 23.7087H99.2806H99.4816C99.4816 22.3702 98.4884 21.4881 97.3052 21.4881V21.6891ZM99.2806 23.7087H99.0796V28.4556H99.2806H99.4816V23.7087H99.2806ZM99.2806 28.4556V28.6566H100.445V28.4556V28.2545H99.2806V28.4556ZM100.445 28.4556H100.646V23.635H100.445H100.244V28.4556H100.445ZM100.445 23.635H100.646C100.646 22.7455 100.364 21.9361 99.8336 21.3465C99.3014 20.7545 98.531 20.3972 97.5853 20.3972V20.5982V20.7992C98.4233 20.7992 99.0828 21.1127 99.5346 21.6153C99.9886 22.1202 100.244 22.8292 100.244 23.635H100.445ZM97.5853 20.5982V20.3972C96.3194 20.3972 95.4192 21.056 95.0593 21.825L95.2413 21.9102L95.4234 21.9954C95.7121 21.3787 96.463 20.7992 97.5853 20.7992V20.5982ZM95.2413 21.9102V21.7092H95.1529V21.9102V22.1112H95.2413V21.9102ZM95.1529 21.9102H95.3539V20.7898H95.1529H94.9519V21.9102H95.1529ZM95.1529 20.7898V20.5888H93.9883V20.7898V20.9909H95.1529V20.7898ZM93.9883 20.7898H93.7873V28.4556H93.9883H94.1893V20.7898H93.9883ZM104.254 31.8462H104.053V32.0472H104.254V31.8462ZM109.901 20.7898H110.102V20.5888H109.901V20.7898ZM108.78 20.7898V20.5888H108.579V20.7898H108.78ZM108.78 21.9987V22.1997H108.981V21.9987H108.78ZM108.692 21.9987L108.526 22.1122L108.586 22.1997H108.692V21.9987ZM108.647 27.2173V27.0162H108.527L108.47 27.1229L108.647 27.2173ZM108.736 27.2173H108.937V27.0162H108.736V27.2173ZM104.254 30.77V30.569H104.053V30.77H104.254ZM104.254 31.8462V32.0472H107.571V31.8462V31.6451H104.254V31.8462ZM107.571 31.8462V32.0472C108.298 32.0472 108.935 31.8832 109.393 31.4878C109.855 31.0878 110.102 30.4797 110.102 29.6644H109.901H109.7C109.7 30.3969 109.481 30.8797 109.13 31.1836C108.773 31.4922 108.245 31.6451 107.571 31.6451V31.8462ZM109.901 29.6644H110.102V20.7898H109.901H109.7V29.6644H109.901ZM109.901 20.7898V20.5888H108.78V20.7898V20.9909H109.901V20.7898ZM108.78 20.7898H108.579V21.9987H108.78H108.981V20.7898H108.78ZM108.78 21.9987V21.7976H108.692V21.9987V22.1997H108.78V21.9987ZM108.692 21.9987L108.858 21.8852C108.661 21.5984 107.886 20.3972 106.112 20.3972V20.5982V20.7992C107.669 20.7992 108.339 21.8388 108.526 22.1122L108.692 21.9987ZM106.112 20.5982V20.3972C103.807 20.3972 102.166 22.1659 102.166 24.608H102.367H102.569C102.569 22.3621 104.054 20.7992 106.112 20.7992V20.5982ZM102.367 24.608H102.166C102.166 25.8365 102.552 26.8967 103.234 27.6522C103.916 28.4094 104.885 28.8482 106.023 28.8482V28.6472V28.4462C104.994 28.4462 104.136 28.0521 103.532 27.383C102.927 26.7123 102.569 25.7529 102.569 24.608H102.367ZM106.023 28.6472V28.8482C107.726 28.8482 108.551 27.8278 108.825 27.3116L108.647 27.2173L108.47 27.1229C108.243 27.5502 107.535 28.4462 106.023 28.4462V28.6472ZM108.647 27.2173V27.4183H108.736V27.2173V27.0162H108.647V27.2173ZM108.736 27.2173H108.535V29.5465H108.736H108.937V27.2173H108.736ZM108.736 29.5465H108.535C108.535 29.9375 108.454 30.183 108.317 30.3319C108.184 30.477 107.962 30.569 107.586 30.569V30.77V30.971C108.021 30.971 108.374 30.864 108.613 30.6038C108.849 30.3473 108.937 29.981 108.937 29.5465H108.736ZM107.586 30.77V30.569H104.254V30.77V30.971H107.586V30.77ZM104.254 30.77H104.053V31.8462H104.254H104.455V30.77H104.254ZM106.156 27.5858V27.3848C104.787 27.3848 103.763 26.2768 103.763 24.608H103.562H103.361C103.361 26.4477 104.518 27.7868 106.156 27.7868V27.5858ZM103.562 24.608H103.763C103.763 23.752 104.036 23.0657 104.469 22.5955C104.901 22.1259 105.503 21.8606 106.186 21.8606V21.6596V21.4586C105.394 21.4586 104.684 21.7683 104.173 22.3232C103.662 22.8775 103.361 23.6654 103.361 24.608H103.562ZM106.186 21.6596V21.8606C107.635 21.8606 108.579 23.0775 108.579 24.608H108.78H108.981C108.981 22.9247 107.92 21.4586 106.186 21.4586V21.6596ZM108.78 24.608H108.579C108.579 25.5089 108.298 26.2016 107.863 26.6672C107.428 27.1326 106.826 27.3848 106.156 27.3848V27.5858V27.7868C106.931 27.7868 107.641 27.4935 108.157 26.9418C108.672 26.3902 108.981 25.5939 108.981 24.608H108.78Z" fill="black" mask="url(#path-2-outside-1_1_181)"/>
<ellipse cx="23.4525" cy="23.0007" rx="18.0922" ry="17.7429" fill="#191919"/>
<path d="M24.8359 20.2893V27.2761C24.8359 27.3505 24.8547 27.4237 24.8904 27.4893C24.9262 27.5548 24.978 27.6107 25.0411 27.652L25.6741 28.0658C25.7355 28.106 25.8059 28.1311 25.8792 28.139C25.9526 28.1469 26.0269 28.1374 26.0957 28.1113C26.1646 28.0852 26.226 28.0433 26.2749 27.989C26.3238 27.9347 26.3586 27.8697 26.3765 27.7995L27.1393 24.8072" stroke="#F5F5F5" stroke-width="1.00512" stroke-linecap="round" stroke-linejoin="round"/>
<path d="M27.1394 24.807C27.7503 24.807 28.3362 24.569 28.7681 24.1454C29.2001 23.7218 29.4428 23.1472 29.4428 22.5481C29.4428 21.949 29.2001 21.3744 28.7681 20.9508C28.3362 20.5271 27.7503 20.2892 27.1394 20.2892H24.836C24.836 20.2892 21.7004 20.2892 18.683 17.8073C18.6159 17.7519 18.534 17.7164 18.4471 17.7051C18.3601 17.6938 18.2717 17.707 18.1921 17.7433C18.1126 17.7796 18.0453 17.8374 17.9981 17.9099C17.9509 17.9824 17.9258 18.0666 17.9258 18.1526V26.9435C17.9258 27.0295 17.9509 27.1138 17.9981 27.1863C18.0453 27.2588 18.1126 27.3166 18.1921 27.3529C18.2717 27.3891 18.3601 27.4024 18.4471 27.391C18.534 27.3797 18.6159 27.3443 18.683 27.2889C21.7004 24.807 24.836 24.807 24.836 24.807H27.1394Z" stroke="#F5F5F5" stroke-width="1.00512" stroke-linecap="round" stroke-linejoin="round"/>
</svg>
