<svg width="170" height="56" viewBox="0 0 170 56" fill="none" xmlns="http://www.w3.org/2000/svg">
<circle cx="28" cy="28" r="27.6" fill="#1A1A1A" stroke="#EFEFEF" stroke-width="0.8"/>
<rect x="21" y="16" width="124" height="23" fill="#191919"/>
<path d="M45.28 33H49.344C52.896 33 54.96 30.872 54.96 27.4C54.96 24.136 52.896 21.8 49.344 21.8H45.28V22.904H46.336V31.896H45.28V33ZM47.632 31.848V22.968H49.344C52.032 22.968 53.632 24.696 53.632 27.4C53.632 30.216 52 31.848 49.344 31.848H47.632ZM57.3656 33H58.6616V28.472H60.5496L63.3496 33H64.9176L61.9096 28.36C63.6536 28.04 64.5656 26.728 64.5656 25.064C64.5656 23.112 63.2056 21.8 60.9176 21.8H57.3656V33ZM58.6616 27.32V22.952H60.8376C62.4216 22.952 63.2216 23.896 63.2216 25.08C63.2216 26.552 62.2296 27.32 60.9176 27.32H58.6616ZM72.0585 33.208C75.3225 33.208 77.7865 30.696 77.7865 27.4C77.7865 24.136 75.3385 21.592 72.0745 21.592C68.8265 21.592 66.3625 24.104 66.3625 27.4C66.3625 30.728 68.8105 33.208 72.0585 33.208ZM72.0745 31.992C69.5945 31.992 67.7065 30.056 67.7065 27.4C67.7065 24.776 69.5945 22.808 72.0745 22.808C74.5545 22.808 76.4425 24.776 76.4425 27.4C76.4425 30.056 74.5545 31.992 72.0745 31.992ZM80.1938 33H81.4898V28.568H83.8898C85.8578 28.568 87.3138 27.176 87.3138 25.16C87.3138 23.128 85.9218 21.8 83.8898 21.8H80.1938V33ZM81.4898 27.416V22.952H83.7778C85.1218 22.952 85.9858 23.88 85.9858 25.16C85.9858 26.456 85.1218 27.416 83.7778 27.416H81.4898ZM98.0535 33.208C100.71 33.208 102.23 31.496 102.23 28.968V21.8H100.95V28.952C100.95 30.824 99.9415 32.008 98.0535 32.008C96.1655 32.008 95.1735 30.824 95.1735 28.968V21.8H93.8775V28.984C93.8775 31.528 95.3655 33.208 98.0535 33.208ZM108.392 33.208C110.84 33.208 112.28 31.8 112.28 30.04C112.28 25.512 106.072 27.64 106.072 24.584C106.072 23.656 106.76 22.776 108.344 22.776C109.864 22.776 110.712 23.56 110.712 24.84H112.04C112.04 22.52 110.056 21.592 108.36 21.592C106.104 21.592 104.776 22.984 104.776 24.584C104.776 29.064 110.968 26.616 110.968 30.12C110.968 31.288 109.912 32.008 108.44 32.008C106.744 32.008 105.688 30.968 105.688 29.672H104.392C104.392 31.752 106.168 33.208 108.392 33.208ZM126.667 33H128.027L123.899 21.8H122.059L117.883 33H119.243L120.219 30.344H125.691L126.667 33ZM120.651 29.16L122.907 22.984H123.003L125.259 29.16H120.651ZM134.428 33H140.556V31.832H135.724V21.8H134.428V33ZM142.799 33H147.423V31.88H145.759V22.92H147.423V21.8H142.799V22.92H144.463V31.88H142.799V33ZM150.459 33H151.755V22.984H151.851L156.843 33H159.019V21.8H157.739V31.816H157.643L152.587 21.8H150.459V33ZM162.225 33H168.785V31.832H163.521V27.88H167.905V26.712H163.521V22.984H168.609V21.8H162.225V33Z" fill="white"/>
<path d="M24.5 31.5L31.5 24.5" stroke="white" stroke-width="0.8" stroke-linecap="round" stroke-linejoin="round"/>
<path d="M25.8125 24.5H31.5V30.1875" stroke="white" stroke-width="0.8" stroke-linecap="round" stroke-linejoin="round"/>
</svg>
