<svg width="24" height="24" viewBox="0 0 24 24" fill="none" xmlns="http://www.w3.org/2000/svg">
<path d="M24 11.9971C23.9994 9.70383 23.3418 7.45874 22.1049 5.52764C20.868 3.59655 19.1036 2.06031 17.0207 1.10082C14.9378 0.141332 12.6236 -0.201229 10.3521 0.113697C8.08055 0.428622 5.94681 1.38784 4.20351 2.8778C2.4602 4.36775 1.18034 6.32603 0.515442 8.52079C-0.149455 10.7156 -0.171537 13.0549 0.45181 15.2618C1.07516 17.4687 2.31783 19.4508 4.0327 20.9734C5.74756 22.496 7.86281 23.4953 10.128 23.8531V15.4651H7.08V11.9971H10.128V9.35709C10.128 6.35709 11.916 4.67709 14.652 4.67709C15.972 4.67709 17.34 4.91709 17.34 4.91709V7.86909H15.84C14.352 7.86909 13.884 8.79309 13.884 9.74109V11.9971H17.22L16.68 15.4651H13.884V23.8531C16.7055 23.4046 19.2743 21.9641 21.1287 19.7908C22.983 17.6175 24.0011 14.854 24 11.9971Z" fill="white"/>
</svg>
