<svg width="144" height="144" viewBox="0 0 144 144" fill="none" xmlns="http://www.w3.org/2000/svg">
<rect width="144" height="144" fill="#1F1F1F"/>
<path opacity="0.2" d="M89.4375 54.5625H52.625C51.5549 54.5625 50.6875 55.4299 50.6875 56.5V72C50.6875 73.0701 51.5549 73.9375 52.625 73.9375H89.4375C90.5076 73.9375 91.375 73.0701 91.375 72V56.5C91.375 55.4299 90.5076 54.5625 89.4375 54.5625Z" fill="white"/>
<path d="M89.4375 54.5625H52.625C51.5549 54.5625 50.6875 55.4299 50.6875 56.5V72C50.6875 73.0701 51.5549 73.9375 52.625 73.9375H89.4375C90.5076 73.9375 91.375 73.0701 91.375 72V56.5C91.375 55.4299 90.5076 54.5625 89.4375 54.5625Z" stroke="white" stroke-width="3.875" stroke-linecap="round" stroke-linejoin="round"/>
<path d="M91.375 64.25H97.1875C97.7014 64.25 98.1942 64.4541 98.5575 64.8175C98.9209 65.1808 99.125 65.6736 99.125 66.1875V78.2885C99.125 78.7096 98.9878 79.1192 98.7343 79.4553C98.4808 79.7914 98.1246 80.0358 97.7198 80.1515L73.4052 87.0985C73.0004 87.2142 72.6442 87.4586 72.3907 87.7947C72.1372 88.1308 72 88.5404 72 88.9615V97.1875" stroke="white" stroke-width="3.875" stroke-linecap="round" stroke-linejoin="round"/>
<path d="M50.6875 64.25H44.875" stroke="white" stroke-width="3.875" stroke-linecap="round" stroke-linejoin="round"/>
</svg>
