<svg width="21" height="20" viewBox="0 0 21 20" fill="none" xmlns="http://www.w3.org/2000/svg">
<path d="M16.2011 4.45605H4.26529C3.91834 4.45605 3.63708 4.73188 3.63708 5.07213V10.0007C3.63708 10.3409 3.91834 10.6168 4.26529 10.6168H16.2011C16.548 10.6168 16.8293 10.3409 16.8293 10.0007V5.07213C16.8293 4.73188 16.548 4.45605 16.2011 4.45605Z" stroke="#000E33" stroke-width="1.20614" stroke-linecap="round" stroke-linejoin="round"/>
<path d="M16.8294 7.53638H18.714C18.8806 7.53638 19.0404 7.60128 19.1582 7.71682C19.276 7.83236 19.3422 7.98906 19.3422 8.15245V12.0002C19.3422 12.1341 19.2977 12.2644 19.2155 12.3712C19.1333 12.4781 19.0178 12.5558 18.8866 12.5926L11.003 14.8016C10.8717 14.8384 10.7562 14.9161 10.674 15.0229C10.5918 15.1298 10.5474 15.2601 10.5474 15.3939V18.0096" stroke="#000E33" stroke-width="1.20614" stroke-linecap="round" stroke-linejoin="round"/>
<path d="M3.63704 7.53638H1.75244" stroke="#000E33" stroke-width="1.20614" stroke-linecap="round" stroke-linejoin="round"/>
</svg>
