<svg width="64" height="64" viewBox="0 0 64 64" fill="none" xmlns="http://www.w3.org/2000/svg">
<path d="M32 64C26.3703 64 20.8402 62.5148 15.968 59.6943C11.0958 56.8738 7.05387 52.8179 4.25029 47.9359C1.44671 43.054 -0.0193218 37.5188 0.00019224 31.8891C0.0197063 26.2594 1.52407 20.7345 4.36143 15.8721C7.19879 11.0097 11.2687 6.98186 16.1604 4.19522C21.052 1.40857 26.5923 -0.0382591 32.2218 0.000768965C37.8514 0.039797 43.3711 1.5633 48.2236 4.4175C53.0762 7.2717 57.0899 11.3556 59.8595 16.2568L32 32L32 64Z" fill="#191919"/>
<circle cx="32.0007" cy="31.9983" r="30" fill="#F5F5F5"/>
<path d="M39.3345 31.0391L29.2117 24.8527C29.0412 24.7484 28.846 24.6915 28.6461 24.6877C28.4463 24.6839 28.2491 24.7334 28.0748 24.8312C27.9004 24.9289 27.7553 25.0713 27.6543 25.2438C27.5532 25.4162 27.5 25.6125 27.5 25.8124V38.1863C27.5002 38.3861 27.5535 38.5822 27.6546 38.7546C27.7556 38.9269 27.9007 39.0693 28.075 39.167C28.2493 39.2647 28.4464 39.3142 28.6462 39.3105C28.846 39.3068 29.0411 39.25 29.2117 39.1459L39.3345 32.9595C39.4989 32.859 39.6348 32.7178 39.729 32.5497C39.8233 32.3816 39.8728 32.1921 39.8728 31.9993C39.8728 31.8066 39.8233 31.617 39.729 31.4489C39.6348 31.2808 39.4989 31.1397 39.3345 31.0391V31.0391Z" fill="#191919"/>
</svg>
