<svg width="21" height="20" viewBox="0 0 21 20" fill="none" xmlns="http://www.w3.org/2000/svg">
<path d="M3.92932 14.3132V5.68823" stroke="#000E33" stroke-width="1.20614" stroke-linecap="round" stroke-linejoin="round"/>
<path d="M16.4934 5.68823V14.3132" stroke="#000E33" stroke-width="1.20614" stroke-linecap="round" stroke-linejoin="round"/>
<path d="M17.1216 3.22388H3.30117C2.95423 3.22388 2.67297 3.4997 2.67297 3.83995V5.07209C2.67297 5.41234 2.95423 5.68816 3.30117 5.68816H17.1216C17.4685 5.68816 17.7498 5.41234 17.7498 5.07209V3.83995C17.7498 3.4997 17.4685 3.22388 17.1216 3.22388Z" stroke="#000E33" stroke-width="1.20614" stroke-linecap="round" stroke-linejoin="round"/>
<path d="M10.2114 14.3132V16.7775" stroke="#000E33" stroke-width="1.20614" stroke-linecap="round" stroke-linejoin="round"/>
<path d="M10.2114 19.2416C10.9052 19.2416 11.4678 18.69 11.4678 18.0095C11.4678 17.329 10.9052 16.7773 10.2114 16.7773C9.51747 16.7773 8.95496 17.329 8.95496 18.0095C8.95496 18.69 9.51747 19.2416 10.2114 19.2416Z" stroke="#000E33" stroke-width="1.20614" stroke-linecap="round" stroke-linejoin="round"/>
<path d="M2.67297 14.3132H17.7498" stroke="#000E33" stroke-width="1.20614" stroke-linecap="round" stroke-linejoin="round"/>
</svg>
