<svg width="144" height="144" viewBox="0 0 144 144" fill="none" xmlns="http://www.w3.org/2000/svg">
<rect width="144" height="144" fill="#1F1F1F"/>
<path opacity="0.2" d="M74.5135 83.1244L70.0095 95.3494C69.8769 95.7093 69.6372 96.0198 69.3226 96.2392C69.008 96.4586 68.6337 96.5762 68.2501 96.5762C67.8666 96.5762 67.4923 96.4586 67.1777 96.2392C66.8631 96.0198 66.6233 95.7093 66.4907 95.3494L61.9868 83.1244C61.893 82.8698 61.7451 82.6386 61.5532 82.4468C61.3614 82.2549 61.1302 82.107 60.8756 82.0132L48.6506 77.5093C48.2907 77.3767 47.9802 77.1369 47.7608 76.8223C47.5414 76.5077 47.4238 76.1334 47.4238 75.7499C47.4238 75.3664 47.5414 74.992 47.7608 74.6774C47.9802 74.3628 48.2907 74.1231 48.6506 73.9905L60.8756 69.4866C61.1302 69.3928 61.3614 69.2448 61.5532 69.053C61.7451 68.8611 61.893 68.6299 61.9868 68.3754L66.4907 56.1504C66.6233 55.7905 66.8631 55.4799 67.1777 55.2606C67.4923 55.0412 67.8666 54.9236 68.2501 54.9236C68.6337 54.9236 69.008 55.0412 69.3226 55.2606C69.6372 55.4799 69.8769 55.7905 70.0095 56.1504L74.5135 68.3754C74.6073 68.6299 74.7552 68.8611 74.947 69.053C75.1389 69.2448 75.3701 69.3928 75.6247 69.4866L87.8496 73.9905C88.2095 74.1231 88.5201 74.3628 88.7395 74.6774C88.9588 74.992 89.0764 75.3664 89.0764 75.7499C89.0764 76.1334 88.9588 76.5077 88.7395 76.8223C88.5201 77.1369 88.2095 77.3767 87.8496 77.5093L75.6247 82.0132C75.3701 82.107 75.1389 82.2549 74.947 82.4468C74.7552 82.6386 74.6073 82.8698 74.5135 83.1244Z" fill="white"/>
<path d="M74.5135 83.1244L70.0095 95.3494C69.8769 95.7093 69.6372 96.0198 69.3226 96.2392C69.008 96.4586 68.6337 96.5762 68.2501 96.5762C67.8666 96.5762 67.4923 96.4586 67.1777 96.2392C66.8631 96.0198 66.6233 95.7093 66.4907 95.3494L61.9868 83.1244C61.893 82.8698 61.7451 82.6386 61.5532 82.4468C61.3614 82.2549 61.1302 82.107 60.8756 82.0132L48.6506 77.5093C48.2907 77.3767 47.9802 77.1369 47.7608 76.8223C47.5414 76.5077 47.4238 76.1334 47.4238 75.7499C47.4238 75.3664 47.5414 74.992 47.7608 74.6774C47.9802 74.3628 48.2907 74.1231 48.6506 73.9905L60.8756 69.4866C61.1302 69.3928 61.3614 69.2448 61.5532 69.053C61.7451 68.8611 61.893 68.6299 61.9868 68.3754L66.4907 56.1504C66.6233 55.7905 66.8631 55.4799 67.1777 55.2606C67.4923 55.0412 67.8666 54.9236 68.2501 54.9236C68.6337 54.9236 69.008 55.0412 69.3226 55.2606C69.6372 55.4799 69.8769 55.7905 70.0095 56.1504L74.5135 68.3754C74.6073 68.6299 74.7552 68.8611 74.947 69.053C75.1389 69.2448 75.3701 69.3928 75.6247 69.4866L87.8496 73.9905C88.2095 74.1231 88.5201 74.3628 88.7395 74.6774C88.9588 74.992 89.0764 75.3664 89.0764 75.7499C89.0764 76.1334 88.9588 76.5077 88.7395 76.8223C88.5201 77.1369 88.2095 77.3767 87.8496 77.5093L75.6247 82.0132C75.3701 82.107 75.1389 82.2549 74.947 82.4468C74.7552 82.6386 74.6073 82.8698 74.5135 83.1244V83.1244Z" stroke="white" stroke-width="2.35" stroke-linecap="round" stroke-linejoin="round"/>
<path d="M83.25 45.75V57" stroke="white" stroke-width="2.35" stroke-linecap="round" stroke-linejoin="round"/>
<path d="M88.875 51.375H77.625" stroke="white" stroke-width="2.35" stroke-linecap="round" stroke-linejoin="round"/>
<path d="M94.5 58.875V66.375" stroke="white" stroke-width="2.35" stroke-linecap="round" stroke-linejoin="round"/>
<path d="M98.25 62.625H90.75" stroke="white" stroke-width="2.35" stroke-linecap="round" stroke-linejoin="round"/>
</svg>
